<?xml version="1.0" encoding="UTF-8" standalone="no"?>
<svg
   data-name="Layer 1"
   width="232.71245"
   height="224.99072"
   viewBox="0 0 232.71245 224.99073"
   version="1.1"
   id="svg91"
   sodipodi:docname="no-photos.svg"
   inkscape:export-filename="no-photos.svg"
   inkscape:export-xdpi="96"
   inkscape:export-ydpi="96"
   xmlns:inkscape="http://www.inkscape.org/namespaces/inkscape"
   xmlns:sodipodi="http://sodipodi.sourceforge.net/DTD/sodipodi-0.dtd"
   xmlns="http://www.w3.org/2000/svg"
   xmlns:svg="http://www.w3.org/2000/svg">
  <defs
     id="defs95" />
  <sodipodi:namedview
     id="namedview93"
     pagecolor="#ffffff"
     bordercolor="#000000"
     borderopacity="0.25"
     inkscape:showpageshadow="2"
     inkscape:pageopacity="0.0"
     inkscape:pagecheckerboard="0"
     inkscape:deskcolor="#d1d1d1"
     showgrid="false"
     inkscape:lockguides="true" />
  <g
     id="g1008"
     transform="translate(-198.05293,8407.8622)">
    <g
       id="g972"
       transform="translate(305.29845,58.615351)">
      <path
         d="m -35.190473,-8305.7702 a 3.192494,3.1052653 0 0 0 -4.863908,-0.5386 l -10.081373,-5.0614 0.626703,5.702 9.477372,3.9321 a 3.209803,3.1221014 0 0 0 4.841206,-4.0341 z"
         fill="#ffb8b8"
         id="path25"
         style="stroke-width:0.313112" />
      <path
         d="m -44.149839,-8303.4752 a 1.4302164,1.3911385 0 0 1 -1.164818,0.012 l -9.575864,-4.0404 a 14.722624,14.320357 0 0 1 -7.448683,-7.0091 l -5.034284,-10.3361 a 4.6023476,4.4765973 0 1 1 7.270532,-5.4907 l 8.84901,15.9694 8.170906,6.0037 a 1.4333214,1.3941586 0 0 1 0.503714,1.5197 l -0.801972,2.5196 a 1.4304609,1.3913762 0 0 1 -0.48375,0.6829 1.4142377,1.3755963 0 0 1 -0.284791,0.169 z"
         fill="#536dfe"
         id="path27"
         style="stroke-width:0.313112" />
      <ellipse
         cx="-67.595047"
         cy="-8344.5889"
         fill="#ffb8b8"
         id="circle29"
         rx="7.7976227"
         ry="7.5845666"
         style="stroke-width:0.313112" />
      <polygon
         points="134.831,669.62 134.833,716.908 147.093,716.907 152.925,669.619 "
         fill="#ffb8b8"
         id="polygon31"
         transform="matrix(0.31747946,0,0,0.30880495,-107.24351,-8466.4778)" />
      <path
         d="m -53.037909,-8241.5782 -12.232705,9e-4 -2.26e-4,-4.5972 7.506448,-3e-4 a 4.7262724,4.5971361 0 0 1 4.726483,4.597 v 0 z"
         fill="#2f2e41"
         id="path33"
         style="stroke-width:0.313112" />
      <polygon
         points="94.831,669.62 94.833,716.908 107.093,716.907 112.925,669.619 "
         fill="#ffb8b8"
         id="polygon35"
         transform="matrix(0.31747946,0,0,0.30880495,-107.24351,-8466.4778)" />
      <path
         d="m -65.737072,-8241.5782 -12.232723,9e-4 -2.27e-4,-4.5972 7.506448,-3e-4 a 4.7262724,4.5971361 0 0 1 4.726502,4.597 v 0 z"
         fill="#2f2e41"
         id="path37"
         style="stroke-width:0.313112" />
      <path
         d="m -78.494961,-8249.273 a 1.4281972,1.3891745 0 0 1 -0.341287,-1.0989 l 6.814568,-49.7131 16.930732,2.7967 1.806909,-1.0545 -4.672497,47.1681 a 1.4325657,1.3934237 0 0 1 -1.300449,1.2241 l -5.126577,0.4155 a 1.4284004,1.3893722 0 0 1 -1.544993,-1.4644 l 1.327274,-22.4631 a 0.15875878,0.154421 0 0 0 -0.311743,-0.049 l -6.566471,23.6854 a 1.4311117,1.3920092 0 0 1 -1.379356,1.028 h -4.561201 a 1.4281654,1.3891436 0 0 1 -1.074909,-0.4744 z"
         fill="#2f2e41"
         id="path39"
         style="stroke-width:0.313112" />
      <path
         d="m -66.769687,-8296.6052 a 1.1215978,1.0909523 0 0 0 -1.433777,-0.058 l -3.384926,2.5609 a 1.4274257,1.3884241 0 0 1 -2.250096,-0.7123 c -1.660341,-5.6559 -5.422043,-19.8926 -4.495334,-29.9127 0.525284,-5.6798 5.567679,-9.9964 11.240365,-9.6342 3.878192,0.2515 6.429581,2.4276 7.583316,6.4677 2.832746,9.9195 5.945841,28.1148 6.541115,31.6619 a 1.4223556,1.3834925 0 0 1 -0.678287,1.417 10.457437,10.171708 0 0 1 -5.299318,1.4505 c -2.260192,0 -4.970239,-0.7653 -7.823058,-3.2406 z"
         fill="#536dfe"
         id="path41"
         style="stroke-width:0.313112" />
      <path
         d="m -65.492492,-8293.0766 a 3.1925035,3.1052746 0 0 0 -3.485557,-3.3434 l -4.721499,-10.0341 -3.124487,4.8629 4.962635,8.783 a 3.209803,3.1221014 0 0 0 6.368908,-0.2684 z"
         fill="#ffb8b8"
         id="path43"
         style="stroke-width:0.313112" />
      <path
         d="m -73.998476,-8296.6486 a 1.4302449,1.3911664 0 0 1 -0.924217,-0.6897 l -4.971472,-8.9273 a 14.722634,14.320366 0 0 1 -1.414165,-9.9864 l 2.596502,-11.155 a 4.6023474,4.4765972 0 1 1 9.204571,0.044 l -3.168902,17.8775 2.620373,9.6288 a 1.4333214,1.3941586 0 0 1 -0.567841,1.4981 l -2.22966,1.5012 a 1.4304418,1.3913577 0 0 1 -0.813926,0.247 1.4141932,1.3755531 0 0 1 -0.331263,-0.038 z"
         fill="#536dfe"
         id="path45"
         style="stroke-width:0.313112" />
      <polygon
         points="111.869,513.908 116.869,474.908 107.869,512.908 120.869,544.908 "
         opacity="0.2"
         id="polygon47"
         transform="matrix(0.31747946,0,0,0.30880495,-107.24351,-8466.4778)" />
      <path
         d="m -68.489714,-8336.9997 c -2.859797,0.063 -5.68579,-1.6669 -6.975708,-4.2701 a 8.5125259,8.2799375 0 0 1 0.767444,-8.2588 7.6193132,7.4111306 0 0 1 7.63809,-2.8583 c 1.572788,-0.9737 3.40143,-1.6289 5.234195,-1.4623 1.832747,0.1667 3.645293,1.2761 4.330649,3.0172 0.685337,1.7411 -0.05093,4.0362 -1.755072,4.7437 -1.092527,0.4537 -2.326266,0.2337 -3.492182,0.051 -1.165924,-0.1829 -2.437817,-0.3023 -3.452524,0.3111 -1.014725,0.6134 -1.470852,2.2581 -0.562086,3.025 a 3.3823944,3.289977 0 0 1 0.898108,3.5095 c -0.456735,1.2044 -1.703316,2.1719 -2.630914,2.1923 z"
         fill="#2f2e41"
         id="path49"
         style="stroke-width:0.313112" />
      <path
         d="m 80.842013,-8413.0708 h -1.26953 v -33.8282 a 20.128789,19.578808 0 0 0 -20.12876,-19.5788 h -73.682767 a 20.128791,19.578812 0 0 0 -20.128839,19.5788 v 185.5838 a 20.128795,19.578814 0 0 0 20.128766,19.5788 h 73.68274 a 20.128791,19.578812 0 0 0 20.12883,-19.5787 v -127.6763 h 1.26953 z"
         fill="#e6e6e6"
         id="path51"
         style="stroke-width:0.313112" />
      <path
         d="m 75.288153,-8446.7624 v 185.3108 a 15.032881,14.622137 0 0 1 -15.03265,14.6219 h -74.03621 a 15.032915,14.622171 0 0 1 -15.032648,-14.6219 v -185.3108 a 15.032932,14.622186 0 0 1 15.032648,-14.6219 h 8.9815002 a 7.1453798,6.9501463 0 0 0 6.6131,9.5699 H 44.025963 a 7.1454278,6.9501931 0 0 0 6.61309,-9.5699 h 9.61645 a 15.032932,14.622186 0 0 1 15.03265,14.6219 z"
         fill="#ffffff"
         id="path53"
         style="stroke-width:0.313112" />
      <path
         d="m 66.509723,-8357.7803 a 3.8515781,3.7463413 0 0 0 -3.61677,-2.4736 h -79.311097 a 3.8413521,3.7363947 0 0 0 -3.84283,3.7379 v 59.1993 a 3.8482827,3.743136 0 0 0 3.84283,3.7379 h 79.311097 a 3.8482797,3.7431328 0 0 0 3.84283,-3.7378 v -59.1994 a 3.8136203,3.7094206 0 0 0 -0.22606,-1.2643 z"
         fill="#f2f2f2"
         id="path55"
         style="stroke-width:0.313112" />
      <path
         d="m 66.509723,-8432.1415 a 3.8515781,3.7463413 0 0 0 -3.61677,-2.4735 h -79.311097 a 3.8413521,3.7363947 0 0 0 -3.84283,3.7378 v 59.1993 a 3.8482827,3.743136 0 0 0 3.84283,3.7379 h 79.311097 a 3.8482797,3.7431328 0 0 0 3.84283,-3.7379 v -59.1993 a 3.8136203,3.7094206 0 0 0 -0.22606,-1.2643 z"
         fill="#ffffff"
         id="path57"
         style="stroke-width:0.313112" />
      <path
         d="m 66.509723,-8432.1415 a 3.8515781,3.7463413 0 0 0 -3.61677,-2.4735 h -79.311097 a 3.8413521,3.7363947 0 0 0 -3.84283,3.7378 v 59.1993 a 3.8482827,3.743136 0 0 0 3.84283,3.7379 h 79.311097 a 3.8482797,3.7431328 0 0 0 3.84283,-3.7379 v -59.1993 a 3.8136203,3.7094206 0 0 0 -0.22606,-1.2643 z m -0.22604,60.4636 a 3.394865,3.3021069 0 0 1 -3.39073,3.2981 h -79.311097 a 3.394865,3.3021069 0 0 1 -3.390736,-3.2981 v -59.1993 a 3.394865,3.3021069 0 0 1 3.390736,-3.2981 h 79.311097 a 3.394865,3.3021069 0 0 1 3.39073,3.2981 z"
         fill="#3f3d56"
         id="path59"
         style="stroke-width:0.313112" />
      <path
         d="m 60.618953,-8426.6492 v 41.3371 a 1.0695883,1.0403639 0 0 1 -1.06925,1.0407 h -72.14417 a 0.90201627,0.8773704 0 0 1 -0.15334,-0.012 1.0689533,1.0397463 0 0 1 -0.91663,-1.0291 v -41.3371 a 1.0695883,1.0403639 0 0 1 1.06923,-1.0407 h 72.1442 a 1.0695883,1.0403639 0 0 1 1.06996,1.04 z"
         fill="#e6e6e6"
         id="path61"
         style="stroke-width:0.313112" />
      <ellipse
         cx="4.5210462"
         cy="-8412.2422"
         fill="#536dfe"
         id="circle63"
         rx="9.3868141"
         ry="9.1303358"
         style="stroke-width:0.313112" />
      <path
         d="m 33.957013,-8384.1057 h -46.04889 a 0.93878674,0.91313616 0 0 1 -0.17207,-0.013 l 21.7790002,-36.6936 a 1.5249142,1.4832489 0 0 1 2.6544398,0 l 14.61644,24.6243 0.70025,1.1782 z"
         fill="#3f3d56"
         id="path65"
         style="stroke-width:0.313112" />
      <polygon
         points="424.373,231.433 444.755,266.745 395.233,266.745 419.543,231.433 421.293,228.89 422.168,227.618 "
         opacity="0.2"
         style="isolation:isolate"
         id="polygon67"
         transform="matrix(0.31747946,0,0,0.30880495,-107.24351,-8466.4778)" />
      <path
         d="m 59.596703,-8384.1057 h -39.82851 l 7.71798,-10.9043 0.55541,-0.7855 10.05723,-14.2105 c 0.65935,-0.9314 2.24553,-0.9893 3.02075,-0.1757 a 1.818027,1.768353 0 0 1 0.14483,0.1757 z"
         fill="#3f3d56"
         id="path69"
         style="stroke-width:0.313112" />
      <path
         d="m 46.005453,-8354.3226 a 3.8515814,3.7463444 0 0 0 -3.61678,-2.4736 h -79.31109 a 3.8413425,3.7363854 0 0 0 -3.842839,3.7378 v 59.1994 a 3.8482827,3.743136 0 0 0 3.842839,3.7378 h 79.3111 a 3.8482797,3.7431328 0 0 0 3.84282,-3.7378 v -59.1994 a 3.8136203,3.7094206 0 0 0 -0.22605,-1.2642 z"
         fill="#ffffff"
         id="path71"
         style="stroke-width:0.313112" />
      <path
         d="m 46.005453,-8354.3226 a 3.8515814,3.7463444 0 0 0 -3.61678,-2.4736 h -79.31109 a 3.8413425,3.7363854 0 0 0 -3.842839,3.7378 v 59.1994 a 3.8482827,3.743136 0 0 0 3.842839,3.7378 h 79.3111 a 3.8482797,3.7431328 0 0 0 3.84282,-3.7378 v -59.1994 a 3.8136203,3.7094206 0 0 0 -0.22605,-1.2642 z m -0.22604,60.4636 a 3.394865,3.3021069 0 0 1 -3.39073,3.2981 h -79.3111 a 3.394865,3.3021069 0 0 1 -3.390736,-3.2981 v -59.1994 a 3.394865,3.3021069 0 0 1 3.390736,-3.2981 h 79.3111 a 3.394865,3.3021069 0 0 1 3.39074,3.2981 z"
         fill="#3f3d56"
         id="path73"
         style="stroke-width:0.313112" />
      <path
         d="m 40.114673,-8348.8304 v 41.3371 a 1.0695883,1.0403639 0 0 1 -1.06925,1.0407 h -72.144178 a 0.90201627,0.8773704 0 0 1 -0.153338,-0.012 1.0689533,1.0397463 0 0 1 -0.916605,-1.0291 v -41.3371 a 1.0695883,1.0403639 0 0 1 1.069218,-1.0407 h 72.144193 a 1.0695883,1.0403639 0 0 1 1.06996,1.04 z"
         fill="#e6e6e6"
         id="path75"
         style="stroke-width:0.313112" />
      <ellipse
         cx="-15.983249"
         cy="-8334.4229"
         fill="#536dfe"
         id="circle77"
         rx="9.3868141"
         ry="9.1303358"
         style="stroke-width:0.313112" />
      <path
         d="m 13.452733,-8306.2868 h -46.048888 a 0.93878674,0.91313616 0 0 1 -0.172079,-0.013 l 21.779007,-36.6937 a 1.5249142,1.4832489 0 0 1 2.6544502,0 l 14.61644,24.6243 0.70024,1.1783 z"
         fill="#3f3d56"
         id="path79"
         style="stroke-width:0.313112" />
      <polygon
         points="359.789,483.433 380.17,518.745 330.648,518.745 354.958,483.433 356.708,480.89 357.583,479.618 "
         opacity="0.2"
         style="isolation:isolate"
         id="polygon81"
         transform="matrix(0.31747946,0,0,0.30880495,-107.24351,-8466.4778)" />
      <path
         d="M 39.092403,-8306.2868 H -0.73608685 l 7.71799005,-10.9044 0.55541,-0.7855 10.0572198,-14.2105 c 0.65935,-0.9313 2.24554,-0.9893 3.02074,-0.1756 a 1.8176016,1.7679391 0 0 1 0.14483,0.1756 z"
         fill="#3f3d56"
         id="path83"
         style="stroke-width:0.313112" />
      <path
         d="m 10.491163,-8267.7352 h -22.85852 a 5.8733789,5.7129 0 0 1 0,-11.4258 h 22.85852 a 5.8733789,5.7129 0 0 1 0,11.4258 z"
         fill="#536dfe"
         id="path85"
         style="stroke-width:0.313112" />
      <path
         d="m 55.916143,-8267.7352 h -22.85852 a 5.8733789,5.7129 0 0 1 0,-11.4258 h 22.85852 a 5.8733789,5.7129 0 0 1 0,11.4258 z"
         fill="#f2f2f2"
         id="path87"
         style="stroke-width:0.313112" />
      <path
         d="m 125.15145,-8241.4868 h -232.07748 a 0.31748068,0.30880614 0 1 1 0,-0.6176 h 232.07748 a 0.31748068,0.30880614 0 0 1 0,0.6176 z"
         fill="#3f3d56"
         id="path89"
         style="stroke-width:0.313112" />
    </g>
  </g>
</svg>
